{"title":"The.Names.Of.Love.2010.BluRay.720p.Cinemania.cc.mkv","uid":8897646,"size":6285585786,"categoryP":"video","categoryS":"hd___movies","magnet":"?xt=urn:btih:368783ae5d92f466c9077d20c005dcaf476e91ad&amp;dn=The.Names.Of.Love.2010.BluRay.720p.Cinemania.cc.mkv&amp;tr=udp%3A%2F%2Ftracker.openbittorrent.com%3A80&amp;tr=udp%3A%2F%2Fopen.demonii.com%3A1337&amp;tr=udp%3A%2F%2Ftracker.coppersurfer.tk%3A6969&amp;tr=udp%3A%2F%2Fexodus.desync.com%3A6969","seeders":1,"leechers":1,"uploader":"ABSTAIN","files":1,"time":1378739954,"description":"[img]http://cinemania.cc/torrents/images/6240.jpg[/img]\n &lt;a href=&quot;\nhttp://www.imdb.com/title/tt1646974/&quot; rel=&quot;nofollow&quot; target=&quot;_NEW&quot;&gt;\nhttp://www.imdb.com/title/tt1646974/&lt;/a&gt;\n\nGeneral \nThe.Names.Of.Love.2010.BluRay.720p.Cinemania.cc.mkv \nFormat : Matroska \nFormat version : Version 4 / Version 2 \nFile size : 5.85 GiB \nDuration : 1h 38mn \nOverall bit rate : 8 471 Kbps \nMovie name : CINEMANIA.CC \nEncoded date : UTC 2013-09-09 09:33:13 \nWriting application : mkvmerge v6.3.0 ('You can't stop me!') built on Jun 28 2013 20:09:41 \nWriting library : libebml v1.3.0 + libmatroska v1.4.0 \n\nVideo \nID : 1 \nFormat : AVC \nFormat/Info : Advanced Video Codec \nFormat profile : &lt;a class=&quot;__cf_email__&quot; href=&quot;/cdn-cgi/l/email-protection&quot; data-cfemail=&quot;5119383639111d657f60&quot;&gt;[email&amp;#160;protected]&lt;/a&gt;&lt;script cf-hash='f9e31' type=&quot;text/javascript&quot;&gt;\n/* &lt;![CDATA[ */!function(){try{var t=&quot;currentScript&quot;in document?document.currentScript:function(){for(var t=document.getElementsByTagName(&quot;script&quot;),e=t.length;e--;)if(t[e].getAttribute(&quot;cf-hash&quot;))return t[e]}();if(t&amp;&amp;t.previousSibling){var e,r,n,i,c=t.previousSibling,a=c.getAttribute(&quot;data-cfemail&quot;);if(a){for(e=&quot;&quot;,r=parseInt(a.substr(0,2),16),n=2;a.length-n;n+=2)i=parseInt(a.substr(n,2),16)^r,e+=String.fromCharCode(i);e=document.createTextNode(e),c.parentNode.replaceChild(e,c)}}}catch(u){}}();/* ]]&gt; */&lt;/script&gt; \nFormat settings, CABAC : Yes \nFormat settings, ReFrames : 9 frames \nCodec ID : V_MPEG4/ISO/AVC \nDuration : 1h 38mn \nBit rate : 6 602 Kbps \nWidth : 1 280 pixels \nHeight : 692 pixels \nDisplay aspect ratio : 1.85:1 \nFrame rate mode : Constant \nFrame rate : 25.000 fps \nColor space : YUV \nChroma subsampling : 4:2:0 \nBit depth : 8 bits \nScan type : Progressive \nBits/(Pixel*Frame) : 0.298 \nStream size : 4.56 GiB (78%) \nTitle : CINEMANIA.CC \nWriting library : x264 core 138 r2359+704+48 3f879a0 tMod [8-bit@all X86_64] \nEncoding settings : cabac=1 // deblock=1:-3:-3 / analyse=0x3:0x133 / me=umh / subme=11 / psy=1 / fade_compensate=0.00 / psy_rd=1.00:0.00 // me_range=36 / chroma_me=1 / trellis=2 / 8x8dct=1 / cqm=0 / deadzone=21,11 / fast_pskip=0 / chroma_qp_offset=-2 / threads=12 / lookahead_threads=3 / sliced_threads=0 / nr=0 / decimate=1 / interlaced=0 / bluray_compat=0 / constrained_intra=0 / fgo=0 / bframes=16 / b_pyramid=2 / b_adapt=2 / b_bias=0 / direct=3 / weightb=1 / open_gop=0 / weightp=2 / keyint=250 / keyint_min=25 / scenecut=40 / intra_refresh=0 / rc=crf / mbtree=0 / crf=17.1000 / qcomp=0.80 / qpmin=0:0:0 / qpmax=69:69:69 / qpstep=4 / ip_ratio=1.30 / pb_ratio=1.20 / aq=4:1.00 / aq-sensitivity=10.00 / aq-factor=1.00:1.00:1.00 / aq2=0 / aq3=0 \nLanguage : French \nDefault : Yes \nForced : No \n\nAudio #1 \nID : 2 \nFormat : AC-3 \nFormat/Info : Audio Coding 3 \nMode extension : CM (complete main) \nFormat settings, Endianness : Big \nCodec ID : A_AC3 \nDuration : 1h 38mn \nBit rate mode : Constant \nBit rate : 192 Kbps \nChannel(s) : 2 channels \nChannel positions : Front: L R \nSampling rate : 48.0 KHz \nBit depth : 16 bits \nCompression mode : Lossy \nStream size : 136 MiB (2%) \nTitle : ViruseProject \nLanguage : Russian \nDefault : Yes \nForced : Yes \n\nAudio #2 \nID : 3 \nFormat : DTS \nFormat/Info : Digital Theater Systems \nMode : 16 \nFormat settings, Endianness : Big \nCodec ID : A_DTS \nDuration : 1h 38mn \nBit rate mode : Constant \nBit rate : 1 509 Kbps \nChannel(s) : 6 channels \nChannel positions : Front: L C R, Side: L R, LFE \nSampling rate : 48.0 KHz \nBit depth : 16 bits \nCompression mode : Lossy \nStream size : 1.04 GiB (18%) \nLanguage : French \nDefault : No \nForced : No \n\nText #1 \nID : 4 \nFormat : UTF-8 \nCodec ID : S_TEXT/UTF8 \nCodec ID/Info : UTF-8 Plain Text \nTitle : Leonid55 \nLanguage : Russian \nDefault : No \nForced : No \n\nText #2 \nID : 5 \nFormat : UTF-8 \nCodec ID : S_TEXT/UTF8 \nCodec ID/Info : UTF-8 Plain Text \nLanguage : English \nDefault : No \nForced : No \n\nMenu \n00:00:00.000 : en:00:00:00.000 \n00:04:09.920 : en:00:04:09.920 \n00:13:11.360 : en:00:13:11.360 \n00:20:49.080 : en:00:20:49.080 \n00:26:03.400 : en:00:26:03.400 \n00:32:02.720 : en:00:32:02.720 \n00:37:38.400 : en:00:37:38.400 \n00:46:42.840 : en:00:46:42.840 \n00:52:01.800 : en:00:52:01.800 \n00:58:50.640 : en:00:58:50.640 \n01:07:32.320 : en:01:07:32.320 \n01:13:22.600 : en:01:13:22.600 \n01:18:45.120 : en:01:18:45.120 \n01:24:27.400 : en:01:24:27.400 \n01:28:58.840 : en:01:28:58.840 \n01:33:23.640 : en:01:33:23.640 ","torrent":{"xt":"urn:btih:368783ae5d92f466c9077d20c005dcaf476e91ad","amp;dn":"The.Names.Of.Love.2010.BluRay.720p.Cinemania.cc.mkv","amp;tr":["udp%3A%2F%2Ftracker.openbittorrent.com%3A80","udp%3A%2F%2Fopen.demonii.com%3A1337","udp%3A%2F%2Ftracker.coppersurfer.tk%3A6969","udp%3A%2F%2Fexodus.desync.com%3A6969"],"infoHash":"368783ae5d92f466c9077d20c005dcaf476e91ad","infoHashBuffer":{"type":"Buffer","data":[54,135,131,174,93,146,244,102,201,7,125,32,192,5,220,175,71,110,145,173]},"announce":[],"urlList":[]}}